<svg width="23" height="21" viewBox="0 0 23 21" fill="none" xmlns="http://www.w3.org/2000/svg">
<path d="M21.8564 9.4678C22.2675 10.0479 22.5 10.6666 22.5 11.4147C22.5 13.134 20.7554 14.7576 18.4772 14.7576H16.7672C16.9978 15.258 17.182 15.8565 17.182 16.5756C17.182 19.4191 15.4153 20.6666 12.7162 20.6666C9.82842 20.6666 9.99314 16.9583 9.3525 16.4244C8.28623 15.5359 7.0268 13.8289 6.12937 13.1666H1.5C0.671578 13.1666 0 12.607 0 11.9166V2.54163C0 1.85128 0.671578 1.29163 1.5 1.29163H4.5C5.19811 1.29163 5.78475 1.68905 5.95209 2.22717C8.03845 2.18807 9.47053 0.667019 14.2866 0.667019C14.625 0.667019 15 0.666628 15.3281 0.666628C18.943 0.666628 20.5775 2.20659 20.6222 4.39046C21.2465 5.11018 21.5737 6.07491 21.435 7.00725C21.8969 7.72803 22.0755 8.58315 21.8564 9.4678ZM18.9619 7.36507C19.5506 6.53967 19.0209 5.43499 18.3084 5.11624C18.6694 3.21077 17.4831 2.54202 15.8184 2.54202H14.0456C10.6875 2.54202 8.51302 4.01936 6 4.01936V11.2916H6.51188C7.84125 11.2916 9.69844 14.0608 10.9434 15.0987C12.2728 16.2065 11.8298 18.053 12.7162 18.7916C14.932 18.7916 14.932 17.5033 14.932 16.5756C14.932 15.0455 13.6027 14.36 13.6027 12.8826H18.4772C19.4667 12.8826 20.2458 12.144 20.25 11.4053C20.2542 10.667 19.6491 9.92835 19.2061 9.92835C19.8384 9.35979 19.9735 8.16131 18.9619 7.36507ZM4.125 3.79163C4.125 3.27385 3.62133 2.85413 3 2.85413C2.37867 2.85413 1.875 3.27385 1.875 3.79163C1.875 4.3094 2.37867 4.72913 3 4.72913C3.62133 4.72913 4.125 4.3094 4.125 3.79163Z" fill="white" fill-opacity="0.6"/>
</svg>
