<svg width="23" height="21" viewBox="0 0 23 21" fill="none" xmlns="http://www.w3.org/2000/svg">
<path d="M21.8564 11.8655C22.2675 11.2854 22.5 10.6666 22.5 9.91858C22.5 8.19924 20.7554 6.57561 18.4772 6.57561H16.7672C16.9978 6.07522 17.182 5.47678 17.182 4.75764C17.182 1.91413 15.4153 0.666626 12.7162 0.666626C9.82842 0.666626 9.99314 4.37495 9.3525 4.90881C8.28623 5.79737 7.0268 7.5044 6.12937 8.16663H1.5C0.671578 8.16663 0 8.72627 0 9.41663V18.7916C0 19.482 0.671578 20.0416 1.5 20.0416H4.5C5.19811 20.0416 5.78475 19.6442 5.95209 19.1061C8.03845 19.1452 9.47053 20.6662 14.2866 20.6662C14.625 20.6662 15 20.6666 15.3281 20.6666C18.943 20.6666 20.5775 19.1267 20.6222 16.9428C21.2465 16.2231 21.5737 15.2583 21.435 14.326C21.8969 13.6052 22.0755 12.7501 21.8564 11.8655ZM18.9619 13.9682C19.5506 14.7936 19.0209 15.8983 18.3084 16.217C18.6694 18.1225 17.4831 18.7912 15.8184 18.7912H14.0456C10.6875 18.7912 8.51302 17.3139 6 17.3139V10.0416H6.51188C7.84125 10.0416 9.69844 7.27248 10.9434 6.23459C12.2728 5.12678 11.8298 3.2803 12.7162 2.54163C14.932 2.54163 14.932 3.82991 14.932 4.75764C14.932 6.28772 13.6027 6.97327 13.6027 8.45061H18.4772C19.4667 8.45061 20.2458 9.18928 20.25 9.92795C20.2542 10.6662 19.6491 11.4049 19.2061 11.4049C19.8384 11.9735 19.9735 13.1719 18.9619 13.9682ZM4.125 17.5416C4.125 18.0594 3.62133 18.4791 3 18.4791C2.37867 18.4791 1.875 18.0594 1.875 17.5416C1.875 17.0239 2.37867 16.6041 3 16.6041C3.62133 16.6041 4.125 17.0239 4.125 17.5416Z" fill="white" fill-opacity="0.6"/>
</svg>
